<svg xmlns="http://www.w3.org/2000/svg" viewBox="0 0 1200 700" fill="none">
  <defs>
    <linearGradient id="bg4" x1="0%" y1="0%" x2="100%" y2="100%">
      <stop offset="0%" style="stop-color:#0a0f1e"/>
      <stop offset="100%" style="stop-color:#111827"/>
    </linearGradient>
    <linearGradient id="cyan4" x1="0%" y1="0%" x2="100%" y2="0%">
      <stop offset="0%" style="stop-color:#06b6d4"/>
      <stop offset="100%" style="stop-color:#22d3ee"/>
    </linearGradient>
    <linearGradient id="emerald4" x1="0%" y1="0%" x2="100%" y2="0%">
      <stop offset="0%" style="stop-color:#10b981"/>
      <stop offset="100%" style="stop-color:#34d399"/>
    </linearGradient>
  </defs>

  <rect width="1200" height="700" rx="12" fill="url(#bg4)"/>
  <rect width="1200" height="700" rx="12" stroke="#1e293b" stroke-width="1"/>

  <!-- Title bar -->
  <rect width="1200" height="36" rx="12" fill="#0f172a"/>
  <rect y="24" width="1200" height="12" fill="#0f172a"/>
  <circle cx="20" cy="18" r="6" fill="#ef4444"/>
  <circle cx="40" cy="18" r="6" fill="#f59e0b"/>
  <circle cx="60" cy="18" r="6" fill="#22c55e"/>
  <text x="600" y="22" font-family="ui-monospace, monospace" font-size="11" fill="#64748b" text-anchor="middle">flashroute — analytics</text>

  <!-- Sidebar -->
  <rect x="0" y="36" width="200" height="664" fill="#0f172a"/>
  <rect x="197" y="36" width="1" height="664" fill="#1e293b"/>
  <text x="20" y="65" font-family="ui-monospace, monospace" font-size="14" font-weight="700" fill="#f0f9ff">FlashRoute</text>

  <g transform="translate(0, 80)">
    <rect x="0" y="0" width="197" height="36" fill="transparent"/>
    <circle cx="24" cy="18" r="4" fill="#475569"/>
    <text x="40" y="22" font-family="ui-monospace, monospace" font-size="11" fill="#94a3b8">Dashboard</text>
  </g>

  <g transform="translate(0, 116)">
    <rect x="0" y="0" width="197" height="36" fill="transparent"/>
    <circle cx="24" cy="18" r="4" fill="#475569"/>
    <text x="40" y="22" font-family="ui-monospace, monospace" font-size="11" fill="#94a3b8">Opportunities</text>
  </g>

  <g transform="translate(0, 152)">
    <rect x="0" y="0" width="197" height="36" fill="transparent"/>
    <circle cx="24" cy="18" r="4" fill="#475569"/>
    <text x="40" y="22" font-family="ui-monospace, monospace" font-size="11" fill="#94a3b8">Strategies</text>
  </g>

  <g transform="translate(0, 188)">
    <rect x="0" y="0" width="197" height="36" fill="transparent"/>
    <circle cx="24" cy="18" r="4" fill="#475569"/>
    <text x="40" y="22" font-family="ui-monospace, monospace" font-size="11" fill="#94a3b8">Trades</text>
  </g>

  <g transform="translate(0, 224)">
    <rect x="0" y="0" width="197" height="36" fill="#1e293b"/>
    <rect x="0" y="0" width="3" height="36" fill="url(#cyan4)"/>
    <circle cx="24" cy="18" r="4" fill="#06b6d4"/>
    <text x="40" y="22" font-family="ui-monospace, monospace" font-size="11" fill="#06b6d4">Analytics</text>
  </g>

  <text x="16" y="295" font-family="ui-monospace, monospace" font-size="9" fill="#475569" letter-spacing="1">SYSTEM</text>

  <g transform="translate(0, 308)">
    <rect x="0" y="0" width="197" height="36" fill="transparent"/>
    <circle cx="24" cy="18" r="4" fill="#475569"/>
    <text x="40" y="22" font-family="ui-monospace, monospace" font-size="11" fill="#94a3b8">Settings</text>
  </g>

  <!-- Main content -->
  <text x="230" y="75" font-family="ui-monospace, monospace" font-size="18" font-weight="600" fill="#f0f9ff">Analytics</text>

  <!-- Tabs -->
  <g transform="translate(230, 95)">
    <rect x="0" y="0" width="80" height="28" rx="6" fill="#06b6d4" opacity="0.2"/>
    <text x="18" y="18" font-family="ui-monospace, monospace" font-size="11" fill="#06b6d4">Overview</text>
    <rect x="88" y="0" width="60" height="28" rx="6" fill="#1e293b"/>
    <text x="104" y="18" font-family="ui-monospace, monospace" font-size="11" fill="#64748b">Routes</text>
    <rect x="156" y="0" width="50" height="28" rx="6" fill="#1e293b"/>
    <text x="169" y="18" font-family="ui-monospace, monospace" font-size="11" fill="#64748b">Gas</text>
    <rect x="214" y="0" width="90" height="28" rx="6" fill="#1e293b"/>
    <text x="234" y="18" font-family="ui-monospace, monospace" font-size="11" fill="#64748b">Competitors</text>
  </g>

  <!-- KPI Row -->
  <g transform="translate(230, 140)">
    <rect width="120" height="80" rx="8" fill="#1e293b"/>
    <text x="14" y="24" font-family="ui-monospace, monospace" font-size="10" fill="#64748b">TOTAL P&L</text>
    <text x="14" y="52" font-family="ui-monospace, monospace" font-size="18" font-weight="600" fill="#10b981">+$48,291</text>
    <text x="14" y="70" font-family="ui-monospace, monospace" font-size="9" fill="#10b981">↑ 12.4%</text>

    <rect x="136" width="120" height="80" rx="8" fill="#1e293b"/>
    <text x="150" y="24" font-family="ui-monospace, monospace" font-size="10" fill="#64748b">TOTAL VOLUME</text>
    <text x="150" y="52" font-family="ui-monospace, monospace" font-size="18" font-weight="600" fill="#f0f9ff">$2.4M</text>
    <text x="150" y="70" font-family="ui-monospace, monospace" font-size="9" fill="#10b981">↑ 8.1%</text>

    <rect x="272" width="120" height="80" rx="8" fill="#1e293b"/>
    <text x="286" y="24" font-family="ui-monospace, monospace" font-size="10" fill="#64748b">SUCCESS RATE</text>
    <text x="286" y="52" font-family="ui-monospace, monospace" font-size="18" font-weight="600" fill="#f0f9ff">94.2%</text>
    <text x="286" y="70" font-family="ui-monospace, monospace" font-size="9" fill="#ef4444">↓ 0.3%</text>

    <rect x="408" width="120" height="80" rx="8" fill="#1e293b"/>
    <text x="422" y="24" font-family="ui-monospace, monospace" font-size="10" fill="#64748b">AVG GAS USED</text>
    <text x="422" y="52" font-family="ui-monospace, monospace" font-size="18" font-weight="600" fill="#fbbf24">142 gwei</text>
    <text x="422" y="70" font-family="ui-monospace, monospace" font-size="9" fill="#10b981">↓ 8 gwei</text>
  </g>

  <!-- Profit trend chart -->
  <g transform="translate(230, 236)">
    <rect width="580" height="220" rx="8" fill="#1e293b"/>
    <text x="16" y="28" font-family="ui-monospace, monospace" font-size="12" font-weight="500" fill="#f0f9ff">Profit / Volume Trend</text>
    <text x="16" y="44" font-family="ui-monospace, monospace" font-size="10" fill="#64748b">30-day rolling</text>

    <!-- Legend -->
    <rect x="420" y="18" width="10" height="10" rx="2" fill="#06b6d4"/>
    <text x="436" y="27" font-family="ui-monospace, monospace" font-size="9" fill="#64748b">Profit ($)</text>
    <rect x="490" y="18" width="10" height="10" rx="2" fill="#6366f1"/>
    <text x="506" y="27" font-family="ui-monospace, monospace" font-size="9" fill="#64748b">Volume</text>

    <g transform="translate(16, 60)">
      <!-- Grid -->
      <line x1="35" y1="0" x2="35" y2="130" stroke="#1e293b" stroke-width="1"/>
      <line x1="105" y1="0" x2="105" y2="130" stroke="#1e293b" stroke-width="1"/>
      <line x1="175" y1="0" x2="175" y2="130" stroke="#1e293b" stroke-width="1"/>
      <line x1="245" y1="0" x2="245" y2="130" stroke="#1e293b" stroke-width="1"/>
      <line x1="315" y1="0" x2="315" y2="130" stroke="#1e293b" stroke-width="1"/>
      <line x1="385" y1="0" x2="385" y2="130" stroke="#1e293b" stroke-width="1"/>
      <line x1="455" y1="0" x2="455" y2="130" stroke="#1e293b" stroke-width="1"/>
      <line x1="525" y1="0" x2="525" y2="130" stroke="#1e293b" stroke-width="1"/>

      <!-- Volume bars -->
      <rect x="45" y="80" width="40" height="50" rx="2" fill="#6366f1" opacity="0.3"/>
      <rect x="115" y="60" width="40" height="70" rx="2" fill="#6366f1" opacity="0.3"/>
      <rect x="185" y="70" width="40" height="60" rx="2" fill="#6366f1" opacity="0.3"/>
      <rect x="255" y="50" width="40" height="80" rx="2" fill="#6366f1" opacity="0.3"/>
      <rect x="325" y="40" width="40" height="90" rx="2" fill="#6366f1" opacity="0.3"/>
      <rect x="395" y="55" width="40" height="75" rx="2" fill="#6366f1" opacity="0.3"/>
      <rect x="465" y="35" width="40" height="95" rx="2" fill="#6366f1" opacity="0.3"/>
      <rect x="535" y="25" width="40" height="105" rx="2" fill="#6366f1" opacity="0.3"/>

      <!-- Profit line -->
      <path d="M65,100 C100,90 120,95 145,70 C170,45 200,60 225,50 C250,40 280,30 305,35 C330,40 370,20 405,15 C440,10 470,25 555,10" fill="none" stroke="url(#cyan4)" stroke-width="2"/>
    </g>

    <!-- X-axis labels -->
    <text x="55" y="205" font-family="ui-monospace, monospace" font-size="9" fill="#475569">Mar 1</text>
    <text x="135" y="205" font-family="ui-monospace, monospace" font-size="9" fill="#475569">Mar 8</text>
    <text x="215" y="205" font-family="ui-monospace, monospace" font-size="9" fill="#475569">Mar 15</text>
    <text x="285" y="205" font-family="ui-monospace, monospace" font-size="9" fill="#475569">Mar 22</text>
    <text x="355" y="205" font-family="ui-monospace, monospace" font-size="9" fill="#475569">Mar 29</text>
  </g>

  <!-- Success rate gauge -->
  <g transform="translate(830, 236)">
    <rect width="140" height="220" rx="8" fill="#1e293b"/>
    <text x="16" y="28" font-family="ui-monospace, monospace" font-size="12" font-weight="500" fill="#f0f9ff">Success Rate</text>
    <text x="16" y="44" font-family="ui-monospace, monospace" font-size="10" fill="#64748b">Profitability ratio</text>

    <!-- Gauge arc -->
    <path d="M 30 150 A 50 50 0 1 1 110 150" fill="none" stroke="#1e293b" stroke-width="12" stroke-linecap="round"/>
    <path d="M 30 150 A 50 50 0 1 1 104 110" fill="none" stroke="url(#emerald4)" stroke-width="12" stroke-linecap="round"/>

    <text x="70" y="130" font-family="ui-monospace, monospace" font-size="24" font-weight="600" fill="#10b981" text-anchor="middle">94%</text>
    <text x="70" y="150" font-family="ui-monospace, monospace" font-size="10" fill="#64748b" text-anchor="middle">success rate</text>

    <text x="16" y="180" font-family="ui-monospace, monospace" font-size="10" fill="#10b981">● 1,740 profitable</text>
    <text x="16" y="198" font-family="ui-monospace, monospace" font-size="10" fill="#ef4444">● 107 unprofitable</text>
  </g>

  <!-- Gas efficiency breakdown -->
  <g transform="translate(230, 472)">
    <rect width="370" height="180" rx="8" fill="#1e293b"/>
    <text x="16" y="28" font-family="ui-monospace, monospace" font-size="12" font-weight="500" fill="#f0f9ff">Gas Efficiency</text>
    <text x="16" y="44" font-family="ui-monospace, monospace" font-size="10" fill="#64748b">By route type</text>

    <!-- Bar chart -->
    <g transform="translate(16, 60)">
      <text x="0" y="12" font-family="ui-monospace, monospace" font-size="9" fill="#64748b">ETH Multi-hop A</text>
      <rect x="100" y="4" width="200" height="10" rx="5" fill="#1e293b"/>
      <rect x="100" y="4" width="175" height="10" rx="5" fill="#06b6d4"/>
      <text x="280" y="13" font-family="ui-monospace, monospace" font-size="9" fill="#06b6d4">87.5%</text>
    </g>
    <g transform="translate(16, 84)">
      <text x="0" y="12" font-family="ui-monospace, monospace" font-size="9" fill="#64748b">BTC-Arb Scalper</text>
      <rect x="100" y="4" width="200" height="10" rx="5" fill="#1e293b"/>
      <rect x="100" y="4" width="162" height="10" rx="5" fill="#06b6d4"/>
      <text x="280" y="13" font-family="ui-monospace, monospace" font-size="9" fill="#06b6d4">81.2%</text>
    </g>
    <g transform="translate(16, 108)">
      <text x="0" y="12" font-family="ui-monospace, monospace" font-size="9" fill="#64748b">ETH Multi-hop B</text>
      <rect x="100" y="4" width="200" height="10" rx="5" fill="#1e293b"/>
      <rect x="100" y="4" width="188" height="10" rx="5" fill="#06b6d4"/>
      <text x="280" y="13" font-family="ui-monospace, monospace" font-size="9" fill="#06b6d4">94.0%</text>
    </g>
    <g transform="translate(16, 132)">
      <text x="0" y="12" font-family="ui-monospace, monospace" font-size="9" fill="#64748b">Stablecoin Route</text>
      <rect x="100" y="4" width="200" height="10" rx="5" fill="#1e293b"/>
      <rect x="100" y="4" width="195" height="10" rx="5" fill="#10b981"/>
      <text x="280" y="13" font-family="ui-monospace, monospace" font-size="9" fill="#10b981">97.8%</text>
    </g>
  </g>

  <!-- Route performance table -->
  <g transform="translate(620, 472)">
    <rect width="350" height="180" rx="8" fill="#1e293b"/>
    <text x="16" y="28" font-family="ui-monospace, monospace" font-size="12" font-weight="500" fill="#f0f9ff">Top Routes by Profit</text>

    <g transform="translate(16, 44)">
      <rect width="318" height="24" rx="4" fill="#0f172a"/>
      <text x="10" y="16" font-family="ui-monospace, monospace" font-size="9" fill="#64748b">ROUTE</text>
      <text x="200" y="16" font-family="ui-monospace, monospace" font-size="9" fill="#64748b">TRADES</text>
      <text x="260" y="16" font-family="ui-monospace, monospace" font-size="9" fill="#64748b">PROFIT</text>
    </g>

    <g transform="translate(16, 74)">
      <rect width="318" height="24" rx="4" fill="#0f172a"/>
      <text x="10" y="16" font-family="ui-monospace, monospace" font-size="9" fill="#06b6d4">USDC→WETH→DAI</text>
      <text x="200" y="16" font-family="ui-monospace, monospace" font-size="9" fill="#94a3b8">342</text>
      <text x="260" y="16" font-family="ui-monospace, monospace" font-size="9" fill="#10b981">+$18,240</text>
    </g>

    <g transform="translate(16, 104)">
      <rect width="318" height="24" rx="4" fill="#0f172a"/>
      <text x="10" y="16" font-family="ui-monospace, monospace" font-size="9" fill="#06b6d4">WBTC→ETH→USDT</text>
      <text x="200" y="16" font-family="ui-monospace, monospace" font-size="9" fill="#94a3b8">218</text>
      <text x="260" y="16" font-family="ui-monospace, monospace" font-size="9" fill="#10b981">+$14,891</text>
    </g>

    <g transform="translate(16, 134)">
      <rect width="318" height="24" rx="4" fill="#0f172a"/>
      <text x="10" y="16" font-family="ui-monospace, monospace" font-size="9" fill="#06b6d4">DAI→USDC→USDT</text>
      <text x="200" y="16" font-family="ui-monospace, monospace" font-size="9" fill="#94a3b8">512</text>
      <text x="260" y="16" font-family="ui-monospace, monospace" font-size="9" fill="#10b981">+$9,444</text>
    </g>
  </g>

  <rect x="0" y="699" width="1200" height="1" fill="url(#cyan4)" opacity="0.2"/>
</svg>