<svg xmlns="http://www.w3.org/2000/svg" viewBox="0 0 1200 700" fill="none">
  <defs>
    <linearGradient id="bg5" x1="0%" y1="0%" x2="100%" y2="100%">
      <stop offset="0%" style="stop-color:#0a0f1e"/>
      <stop offset="100%" style="stop-color:#111827"/>
    </linearGradient>
    <linearGradient id="cyan5" x1="0%" y1="0%" x2="100%" y2="0%">
      <stop offset="0%" style="stop-color:#06b6d4"/>
      <stop offset="100%" style="stop-color:#22d3ee"/>
    </linearGradient>
  </defs>

  <rect width="1200" height="700" rx="12" fill="url(#bg5)"/>
  <rect width="1200" height="700" rx="12" stroke="#1e293b" stroke-width="1"/>

  <!-- Title bar -->
  <rect width="1200" height="36" rx="12" fill="#0f172a"/>
  <rect y="24" width="1200" height="12" fill="#0f172a"/>
  <circle cx="20" cy="18" r="6" fill="#ef4444"/>
  <circle cx="40" cy="18" r="6" fill="#f59e0b"/>
  <circle cx="60" cy="18" r="6" fill="#22c55e"/>
  <text x="600" y="22" font-family="ui-monospace, monospace" font-size="11" fill="#64748b" text-anchor="middle">flashroute — billing</text>

  <!-- Sidebar -->
  <rect x="0" y="36" width="200" height="664" fill="#0f172a"/>
  <rect x="197" y="36" width="1" height="664" fill="#1e293b"/>
  <text x="20" y="65" font-family="ui-monospace, monospace" font-size="14" font-weight="700" fill="#f0f9ff">FlashRoute</text>

  <g transform="translate(0, 80)">
    <rect x="0" y="0" width="197" height="36" fill="transparent"/>
    <circle cx="24" cy="18" r="4" fill="#475569"/>
    <text x="40" y="22" font-family="ui-monospace, monospace" font-size="11" fill="#94a3b8">Dashboard</text>
  </g>

  <g transform="translate(0, 116)">
    <rect x="0" y="0" width="197" height="36" fill="transparent"/>
    <circle cx="24" cy="18" r="4" fill="#475569"/>
    <text x="40" y="22" font-family="ui-monospace, monospace" font-size="11" fill="#94a3b8">Opportunities</text>
  </g>

  <g transform="translate(0, 152)">
    <rect x="0" y="0" width="197" height="36" fill="transparent"/>
    <circle cx="24" cy="18" r="4" fill="#475569"/>
    <text x="40" y="22" font-family="ui-monospace, monospace" font-size="11" fill="#94a3b8">Strategies</text>
  </g>

  <g transform="translate(0, 188)">
    <rect x="0" y="0" width="197" height="36" fill="transparent"/>
    <circle cx="24" cy="18" r="4" fill="#475569"/>
    <text x="40" y="22" font-family="ui-monospace, monospace" font-size="11" fill="#94a3b8">Trades</text>
  </g>

  <g transform="translate(0, 224)">
    <rect x="0" y="0" width="197" height="36" fill="transparent"/>
    <circle cx="24" cy="18" r="4" fill="#475569"/>
    <text x="40" y="22" font-family="ui-monospace, monospace" font-size="11" fill="#94a3b8">Analytics</text>
  </g>

  <text x="16" y="295" font-family="ui-monospace, monospace" font-size="9" fill="#475569" letter-spacing="1">SYSTEM</text>

  <g transform="translate(0, 308)">
    <rect x="0" y="0" width="197" height="36" fill="transparent"/>
    <circle cx="24" cy="18" r="4" fill="#475569"/>
    <text x="40" y="22" font-family="ui-monospace, monospace" font-size="11" fill="#94a3b8">Settings</text>
  </g>

  <!-- Main content -->
  <text x="230" y="75" font-family="ui-monospace, monospace" font-size="18" font-weight="600" fill="#f0f9ff">Billing</text>

  <!-- Current plan badge -->
  <g transform="translate(840, 58)">
    <rect x="0" y="0" width="100" height="28" rx="14" fill="#06b6d4" opacity="0.2"/>
    <text x="14" y="18" font-family="ui-monospace, monospace" font-size="11" fill="#06b6d4">Current: Monitor</text>
  </g>

  <!-- Plan comparison table -->
  <g transform="translate(230, 105)">
    <rect width="740" height="380" rx="8" fill="#1e293b"/>
    <text x="20" y="30" font-family="ui-monospace, monospace" font-size="13" font-weight="600" fill="#f0f9ff">Plans &amp; Pricing</text>

    <!-- Table header -->
    <g transform="translate(20, 52)">
      <rect width="700" height="36" rx="4" fill="#0f172a"/>
      <text x="16" y="22" font-family="ui-monospace, monospace" font-size="10" fill="#475569">FEATURE</text>
      <rect x="180" width="120" height="36" rx="4" fill="#0f172a"/>
      <text x="210" y="22" font-family="ui-monospace, monospace" font-size="10" fill="#475569">MONITOR</text>
      <rect x="308" width="120" height="36" rx="4" fill="#0f172a"/>
      <text x="338" y="22" font-family="ui-monospace, monospace" font-size="10" fill="#475569">TRADER</text>
      <rect x="436" width="120" height="36" rx="4" fill="#0f172a"/>
      <text x="466" y="22" font-family="ui-monospace, monospace" font-size="10" fill="#475569">EXECUTOR</text>
      <rect x="564" width="136" height="36" rx="4" fill="#0f172a"/>
      <text x="604" y="22" font-family="ui-monospace, monospace" font-size="10" fill="#475569">INSTITUTIONAL</text>
    </g>

    <!-- Price row -->
    <g transform="translate(20, 92)">
      <rect width="700" height="36" rx="4" fill="transparent"/>
      <text x="16" y="22" font-family="ui-monospace, monospace" font-size="10" fill="#64748b">Monthly Price</text>
      <text x="210" y="22" font-family="ui-monospace, monospace" font-size="12" font-weight="600" fill="#f0f9ff">Free</text>
      <text x="338" y="22" font-family="ui-monospace, monospace" font-size="12" font-weight="600" fill="#f0f9ff">$49</text>
      <text x="466" y="22" font-family="ui-monospace, monospace" font-size="12" font-weight="600" fill="#f0f9ff">$149</text>
      <text x="604" y="22" font-family="ui-monospace, monospace" font-size="12" font-weight="600" fill="#06b6d4">Custom</text>
    </g>

    <!-- Divider -->
    <line x1="20" y1="134" x2="720" y2="134" stroke="#1e293b" stroke-width="1"/>

    <!-- Feature rows -->
    <g transform="translate(20, 140)">
      <text x="16" y="16" font-family="ui-monospace, monospace" font-size="10" fill="#64748b">Live opportunity feed</text>
      <text x="210" y="16" font-family="ui-monospace, monospace" font-size="10" fill="#10b981">●</text>
      <text x="338" y="16" font-family="ui-monospace, monospace" font-size="10" fill="#10b981">●</text>
      <text x="466" y="16" font-family="ui-monospace, monospace" font-size="10" fill="#10b981">●</text>
      <text x="604" y="16" font-family="ui-monospace, monospace" font-size="10" fill="#10b981">●</text>
    </g>
    <g transform="translate(20, 162)">
      <text x="16" y="16" font-family="ui-monospace, monospace" font-size="10" fill="#64748b">Strategy management</text>
      <text x="210" y="16" font-family="ui-monospace, monospace" font-size="10" fill="#10b981">●</text>
      <text x="338" y="16" font-family="ui-monospace, monospace" font-size="10" fill="#10b981">●</text>
      <text x="466" y="16" font-family="ui-monospace, monospace" font-size="10" fill="#10b981">●</text>
      <text x="604" y="16" font-family="ui-monospace, monospace" font-size="10" fill="#10b981">●</text>
    </g>
    <g transform="translate(20, 184)">
      <text x="16" y="16" font-family="ui-monospace, monospace" font-size="10" fill="#64748b">Historical analytics</text>
      <text x="210" y="16" font-family="ui-monospace, monospace" font-size="10" fill="#10b981">●</text>
      <text x="338" y="16" font-family="ui-monospace, monospace" font-size="10" fill="#10b981">●</text>
      <text x="466" y="16" font-family="ui-monospace, monospace" font-size="10" fill="#10b981">●</text>
      <text x="604" y="16" font-family="ui-monospace, monospace" font-size="10" fill="#10b981">●</text>
    </g>
    <g transform="translate(20, 206)">
      <text x="16" y="16" font-family="ui-monospace, monospace" font-size="10" fill="#64748b">ML demand prediction</text>
      <text x="210" y="16" font-family="ui-monospace, monospace" font-size="10" fill="#ef4444">—</text>
      <text x="338" y="16" font-family="ui-monospace, monospace" font-size="10" fill="#10b981">●</text>
      <text x="466" y="16" font-family="ui-monospace, monospace" font-size="10" fill="#10b981">●</text>
      <text x="604" y="16" font-family="ui-monospace, monospace" font-size="10" fill="#10b981">●</text>
    </g>
    <g transform="translate(20, 228)">
      <text x="16" y="16" font-family="ui-monospace, monospace" font-size="10" fill="#64748b">Real-time signal access</text>
      <text x="210" y="16" font-family="ui-monospace, monospace" font-size="10" fill="#ef4444">—</text>
      <text x="338" y="16" font-family="ui-monospace, monospace" font-size="10" fill="#10b981">●</text>
      <text x="466" y="16" font-family="ui-monospace, monospace" font-size="10" fill="#10b981">●</text>
      <text x="604" y="16" font-family="ui-monospace, monospace" font-size="10" fill="#10b981">●</text>
    </g>
    <g transform="translate(20, 250)">
      <text x="16" y="16" font-family="ui-monospace, monospace" font-size="10" fill="#64748b">Trade execution</text>
      <text x="210" y="16" font-family="ui-monospace, monospace" font-size="10" fill="#ef4444">—</text>
      <text x="338" y="16" font-family="ui-monospace, monospace" font-size="10" fill="#ef4444">—</text>
      <text x="466" y="16" font-family="ui-monospace, monospace" font-size="10" fill="#10b981">●</text>
      <text x="604" y="16" font-family="ui-monospace, monospace" font-size="10" fill="#10b981">●</text>
    </g>
    <g transform="translate(20, 272)">
      <text x="16" y="16" font-family="ui-monospace, monospace" font-size="10" fill="#64748b">Multi-strategy concurrent</text>
      <text x="210" y="16" font-family="ui-monospace, monospace" font-size="10" fill="#ef4444">—</text>
      <text x="338" y="16" font-family="ui-monospace, monospace" font-size="10" fill="#ef4444">—</text>
      <text x="466" y="16" font-family="ui-monospace, monospace" font-size="10" fill="#10b981">2</text>
      <text x="604" y="16" font-family="ui-monospace, monospace" font-size="10" fill="#10b981">Unlimited</text>
    </g>
    <g transform="translate(20, 294)">
      <text x="16" y="16" font-family="ui-monospace, monospace" font-size="10" fill="#64748b">API access</text>
      <text x="210" y="16" font-family="ui-monospace, monospace" font-size="10" fill="#ef4444">—</text>
      <text x="338" y="16" font-family="ui-monospace, monospace" font-size="10" fill="#ef4444">—</text>
      <text x="466" y="16" font-family="ui-monospace, monospace" font-size="10" fill="#ef4444">—</text>
      <text x="604" y="16" font-family="ui-monospace, monospace" font-size="10" fill="#10b981">●</text>
    </g>
    <g transform="translate(20, 316)">
      <text x="16" y="16" font-family="ui-monospace, monospace" font-size="10" fill="#64748b">Custom limits</text>
      <text x="210" y="16" font-family="ui-monospace, monospace" font-size="10" fill="#ef4444">—</text>
      <text x="338" y="16" font-family="ui-monospace, monospace" font-size="10" fill="#ef4444">—</text>
      <text x="466" y="16" font-family="ui-monospace, monospace" font-size="10" fill="#ef4444">—</text>
      <text x="604" y="16" font-family="ui-monospace, monospace" font-size="10" fill="#10b981">●</text>
    </g>
    <g transform="translate(20, 338)">
      <text x="16" y="16" font-family="ui-monospace, monospace" font-size="10" fill="#64748b">Priority support</text>
      <text x="210" y="16" font-family="ui-monospace, monospace" font-size="10" fill="#ef4444">—</text>
      <text x="338" y="16" font-family="ui-monospace, monospace" font-size="10" fill="#ef4444">—</text>
      <text x="466" y="16" font-family="ui-monospace, monospace" font-size="10" fill="#ef4444">—</text>
      <text x="604" y="16" font-family="ui-monospace, monospace" font-size="10" fill="#10b981">●</text>
    </g>

    <!-- CTA row -->
    <line x1="20" y1="360" x2="720" y2="360" stroke="#1e293b" stroke-width="1"/>
    <g transform="translate(20, 368)">
      <rect x="180" width="120" height="32" rx="6" fill="#1e293b" stroke="#1e293b"/>
      <text x="200" y="21" font-family="ui-monospace, monospace" font-size="10" fill="#64748b">Current Plan</text>
      <rect x="308" width="120" height="32" rx="6" fill="#06b6d4" opacity="0.15"/>
      <text x="338" y="21" font-family="ui-monospace, monospace" font-size="10" fill="#06b6d4">Upgrade</text>
      <rect x="436" width="120" height="32" rx="6" fill="#f59e0b" opacity="0.15"/>
      <text x="466" y="21" font-family="ui-monospace, monospace" font-size="10" fill="#f59e0b">Upgrade</text>
      <rect x="564" width="136" height="32" rx="6" fill="#06b6d4" opacity="0.15"/>
      <text x="594" y="21" font-family="ui-monospace, monospace" font-size="10" fill="#06b6d4">Contact Sales</text>
    </g>
  </g>

  <!-- Usage summary -->
  <g transform="translate(230, 505)">
    <rect width="360" height="140" rx="8" fill="#1e293b"/>
    <text x="16" y="28" font-family="ui-monospace, monospace" font-size="12" font-weight="500" fill="#f0f9ff">Current Usage</text>

    <g transform="translate(16, 48)">
      <text x="0" y="14" font-family="ui-monospace, monospace" font-size="10" fill="#64748b">Strategies</text>
      <text x="280" y="14" font-family="ui-monospace, monospace" font-size="10" fill="#06b6d4">2 / 5</text>
      <rect x="0" y="20" width="328" height="6" rx="3" fill="#0f172a"/>
      <rect x="0" y="20" width="130" height="6" rx="3" fill="#06b6d4"/>
    </g>

    <g transform="translate(16, 80)">
      <text x="0" y="14" font-family="ui-monospace, monospace" font-size="10" fill="#64748b">API Calls (this month)</text>
      <text x="280" y="14" font-family="ui-monospace, monospace" font-size="10" fill="#06b6d4">0 / Unlimited</text>
      <rect x="0" y="20" width="328" height="6" rx="3" fill="#0f172a"/>
      <rect x="0" y="20" width="0" height="6" rx="3" fill="#06b6d4"/>
    </g>

    <g transform="translate(16, 112)">
      <text x="0" y="14" font-family="ui-monospace, monospace" font-size="10" fill="#64748b">Trades Executed</text>
      <text x="280" y="14" font-family="ui-monospace, monospace" font-size="10" fill="#f59e0b">Execution disabled</text>
    </g>
  </g>

  <!-- Payment method -->
  <g transform="translate(610, 505)">
    <rect width="360" height="140" rx="8" fill="#1e293b"/>
    <text x="16" y="28" font-family="ui-monospace, monospace" font-size="12" font-weight="500" fill="#f0f9ff">Payment Method</text>

    <g transform="translate(16, 52)">
      <rect width="328" height="44" rx="6" fill="#0f172a"/>
      <rect x="12" y="10" width="28" height="20" rx="3" fill="#6366f1"/>
      <text x="18" y="24" font-family="ui-monospace, monospace" font-size="8" fill="white" font-weight="600">VISA</text>
      <text x="52" y="22" font-family="ui-monospace, monospace" font-size="11" fill="#f0f9ff">•••• •••• •••• 4242</text>
      <text x="52" y="36" font-family="ui-monospace, monospace" font-size="9" fill="#64748b">Expires 12/27</text>
      <rect x="270" y="12" width="44" height="20" rx="4" fill="#1e293b"/>
      <text x="278" y="26" font-family="ui-monospace, monospace" font-size="9" fill="#64748b">Edit</text>
    </g>

    <rect x="16" y="108" width="328" height="28" rx="6" fill="#0f172a"/>
    <text x="140" y="126" font-family="ui-monospace, monospace" font-size="10" fill="#64748b">Invoices &amp; receipts</text>
  </g>

  <rect x="0" y="699" width="1200" height="1" fill="url(#cyan5)" opacity="0.2"/>
</svg>